<?xml version="1.0" encoding="UTF-8"?>
<svg width="50px" height="39px" viewBox="0 0 50 39" version="1.1" xmlns="http://www.w3.org/2000/svg" xmlns:xlink="http://www.w3.org/1999/xlink">
    <!-- Generator: Sketch 48.2 (47327) - http://www.bohemiancoding.com/sketch -->
    <title>photo-camera</title>
    <desc>Created with Sketch.</desc>
    <defs></defs>
    <g id="Start" stroke="none" stroke-width="1" fill="none" fill-rule="evenodd" transform="translate(-383.000000, -27.000000)">
        <g id="Header" transform="translate(380.000000, 20.000000)" fill="#000000" fill-rule="nonzero">
            <g id="photo-camera" transform="translate(3.000000, 7.000000)">
                <path d="M25,9.12765957 C17.9945576,9.12765957 12.295082,14.8974472 12.295082,21.9894106 C12.295082,29.081374 17.9945576,34.8510638 25,34.8510638 C32.0054424,34.8510638 37.704918,29.081374 37.704918,21.9894106 C37.704918,14.8974472 32.0056356,9.12765957 25,9.12765957 Z M25,32.8032024 C19.1099139,32.8032024 14.317891,27.9521602 14.317891,21.9893128 C14.317891,16.0264654 19.1098173,11.1753254 25,11.1753254 C30.8901827,11.1753254 35.682109,16.0264654 35.682109,21.9893128 C35.682109,27.9521602 30.8901827,32.8032024 25,32.8032024 Z" id="Shape"></path>
                <path d="M25.4098361,14.106383 C20.8901766,14.106383 17.2131148,17.6426465 17.2131148,21.9894578 C17.2131148,26.336173 20.8901766,29.8723404 25.4098361,29.8723404 C29.9294955,29.8723404 33.6065574,26.3360769 33.6065574,21.9894578 C33.6065574,17.6428386 29.9294955,14.106383 25.4098361,14.106383 Z M25.4098361,27.9666836 C21.9828064,27.9666836 19.1946925,25.2853526 19.1946925,21.9894578 C19.1946925,18.693563 21.9828064,16.0121359 25.4098361,16.0121359 C28.8368657,16.0121359 31.6249796,18.693563 31.6249796,21.9894578 C31.6250795,25.2853526 28.8369656,27.9666836 25.4098361,27.9666836 Z" id="Shape"></path>
                <path d="M46.7713867,5.52008563 L33.6067383,5.52008563 L32.262207,1.81950264 C31.8667969,0.731136515 30.8303711,0 29.6830078,0 L20.3169922,0 C19.1696289,0 18.1332031,0.731235198 17.737793,1.81950264 L16.3931641,5.51998694 L11.9199219,5.51998694 L11.9199219,4.06975314 C11.9199219,2.9004676 10.9786133,1.94907239 9.82128906,1.94907239 L6.72363281,1.94907239 C5.56650391,1.94907239 4.625,2.9004676 4.625,4.06975314 L4.625,5.52008563 L3.22861328,5.52008563 C1.44833984,5.52008563 0,6.98364153 0,8.78261827 L0,35.7374674 C0,37.5364441 1.44833984,39 3.22861328,39 L46.7713867,39 C48.5516602,39 50,37.5364441 50,35.7374674 L50,8.78261827 C50,6.98364153 48.5516602,5.52008563 46.7713867,5.52008563 Z M19.7582031,2.56919141 C19.8438477,2.33343961 20.0683594,2.17505465 20.3168945,2.17505465 L29.6829102,2.17505465 C29.9314453,2.17505465 30.155957,2.33343961 30.2416016,2.56919141 L31.3137695,5.52008563 L18.6860352,5.52008563 L19.7582031,2.56919141 Z M6.66992188,4.06975314 C6.66992188,4.03985243 6.69404297,4.01537924 6.72373047,4.01537924 L9.82138672,4.01537924 C9.85107422,4.01537924 9.87519531,4.03985243 9.87519531,4.06975314 L9.87519531,5.52008563 L6.66992188,5.52008563 L6.66992188,4.06975314 Z M2.15244141,13.7500835 L5.34023437,13.7500835 L5.34023437,30.7698048 L2.15244141,30.7698048 L2.15244141,13.7500835 Z M47.8474609,35.7374674 C47.8475586,36.3371592 47.3647461,36.8249453 46.7713867,36.8249453 L3.22861328,36.8249453 C2.63515625,36.8249453 2.15244141,36.3370605 2.15244141,35.7374674 L2.15244141,32.9448594 L6.41640625,32.9448594 C7.01074219,32.9448594 7.49257812,32.4578627 7.49257812,31.8573814 L7.49257812,12.6626055 C7.49257812,12.0621242 7.01074219,11.5751275 6.41640625,11.5751275 L2.15244141,11.5751275 L2.15244141,8.78251958 C2.15244141,8.18282778 2.63525391,7.6950416 3.22861328,7.6950416 L32.8473633,7.6950416 C32.8501953,7.6950416 32.852832,7.69533764 32.8555664,7.69533764 C32.8579102,7.69533764 32.8604492,7.6950416 32.862793,7.6950416 L46.7713867,7.6950416 C47.3648437,7.6950416 47.8475586,8.18292646 47.8475586,8.78251958 L47.8475586,11.5751275 L43.5835937,11.5751275 C42.9891602,11.5751275 42.5074219,12.0621242 42.5074219,12.6626055 L42.5074219,31.8573814 C42.5074219,32.4578627 42.9892578,32.9448594 43.5835937,32.9448594 L47.8475586,32.9448594 L47.8475586,35.7374674 L47.8474609,35.7374674 Z M47.8475586,30.7698048 L44.6597656,30.7698048 L44.6597656,13.7500835 L47.8475586,13.7500835 L47.8475586,30.7698048 Z" id="Shape"></path>
                <path d="M25.262977,18.2553191 C23.0841153,18.2553191 21.3114754,20.0497986 21.3114754,22.2555047 C21.3114754,22.7959796 21.7442069,23.2340426 22.2781041,23.2340426 C22.8120012,23.2340426 23.2447327,22.7959796 23.2447327,22.2555047 C23.2447327,21.1289725 24.1500578,20.2124936 25.2628795,20.2124936 C25.7967767,20.2124936 26.2295082,19.7744306 26.2295082,19.2339557 C26.2295082,18.6934807 25.7969716,18.2553191 25.262977,18.2553191 Z" id="Shape"></path>
            </g>
        </g>
    </g>
</svg>