<?xml version="1.0" encoding="UTF-8"?>
<svg width="22px" height="22px" viewBox="0 0 22 22" version="1.1" xmlns="http://www.w3.org/2000/svg" xmlns:xlink="http://www.w3.org/1999/xlink">
    <!-- Generator: Sketch 48.2 (47327) - http://www.bohemiancoding.com/sketch -->
    <title>search</title>
    <desc>Created with Sketch.</desc>
    <defs></defs>
    <g id="Start" stroke="none" stroke-width="1" fill="none" fill-rule="evenodd" transform="translate(-709.000000, -34.000000)">
        <g id="Header" transform="translate(380.000000, 20.000000)" fill="#000000" fill-rule="nonzero">
            <g id="search" transform="translate(329.000000, 14.000000)">
                <path d="M21.6655044,20.0385142 L16.2421281,14.5927746 C17.6365734,12.9923814 18.4005983,10.9787593 18.4005983,8.88249131 C18.4005983,3.98476284 14.2732641,0 9.20029913,0 C4.12733419,0 0,3.98476284 0,8.88249131 C0,13.7802198 4.12733419,17.7649826 9.20029913,17.7649826 C11.1047611,17.7649826 12.9196201,17.2104062 14.4712705,16.1576379 L19.9358482,21.6447003 C20.1642556,21.8737141 20.4714656,22 20.8006763,22 C21.1122864,22 21.407896,21.8853 21.6323033,21.6767546 C22.1091188,21.2337886 22.1243193,20.4992452 21.6655044,20.0385142 Z M9.20029913,2.31717165 C12.950021,2.31717165 16.0005202,5.26229681 16.0005202,8.88249131 C16.0005202,12.5026858 12.950021,15.447811 9.20029913,15.447811 C5.45057722,15.447811 2.40007803,12.5026858 2.40007803,8.88249131 C2.40007803,5.26229681 5.45057722,2.31717165 9.20029913,2.31717165 Z" id="Shape"></path>
            </g>
        </g>
    </g>
</svg>